<?xml version="1.0" standalone="no"?>
<!DOCTYPE svg PUBLIC "-//W3C//DTD SVG 20010904//EN"
 "http://www.w3.org/TR/2001/REC-SVG-20010904/DTD/svg10.dtd">
<svg version="1.0" xmlns="http://www.w3.org/2000/svg"
 width="1280.000000pt" height="1186.000000pt" viewBox="0 0 1280.000000 1186.000000"
 preserveAspectRatio="xMidYMid meet">
<metadata>
Created by potrace 1.15, written by Peter Selinger 2001-2017
</metadata>
<g transform="translate(0.000000,1186.000000) scale(0.100000,-0.100000)"
fill="#000000" stroke="none">
<path d="M11543 11820 c-86 -17 -174 -83 -212 -158 -44 -85 -45 -205 -5 -313
26 -68 30 -271 9 -405 -20 -133 -55 -288 -101 -454 -44 -157 -121 -401 -133
-418 -6 -10 -23 26 -54 110 -121 329 -177 552 -184 728 -4 103 -2 124 21 199
33 108 34 179 2 246 -30 63 -65 97 -141 132 -52 24 -72 28 -150 28 -75 0 -99
-5 -145 -26 -145 -68 -208 -190 -165 -320 15 -46 34 -70 130 -164 122 -119
165 -182 236 -345 85 -197 203 -603 254 -880 l18 -95 -52 -200 c-295 -1137
-650 -1885 -1116 -2350 -254 -254 -574 -427 -885 -479 -120 -19 -330 -30 -349
-18 -8 6 -17 43 -22 98 -32 322 -156 647 -354 923 l-66 91 57 172 c161 493
321 903 469 1203 119 242 202 372 297 467 55 56 85 76 185 123 308 147 323
156 383 211 125 117 179 332 134 537 -27 122 -86 230 -179 323 -89 90 -153
130 -266 168 -305 102 -658 -41 -798 -324 -82 -166 -77 -263 28 -528 81 -205
95 -265 88 -378 -11 -167 -70 -389 -179 -678 -64 -170 -184 -455 -198 -469 -4
-5 -11 6 -15 25 -4 18 -27 75 -52 127 -38 80 -59 108 -137 186 -77 78 -105 99
-186 139 -52 25 -126 53 -165 61 -90 19 -231 19 -319 0 -107 -23 -240 -92
-322 -168 l-70 -66 -28 87 c-92 285 -288 509 -557 636 -457 216 -992 81 -1299
-326 -64 -84 -127 -206 -156 -299 l-17 -57 -61 50 c-79 63 -180 113 -285 139
-119 30 -282 24 -396 -15 -275 -93 -469 -336 -494 -616 l-7 -85 -38 80 c-70
148 -213 489 -265 634 -106 292 -154 497 -154 651 0 109 11 154 85 339 73 181
82 215 82 316 1 110 -17 166 -84 267 -105 160 -252 258 -438 294 -148 28 -274
9 -422 -63 -167 -82 -296 -239 -346 -423 -24 -87 -24 -252 0 -340 26 -94 72
-174 133 -230 53 -49 84 -66 363 -197 159 -76 222 -132 331 -296 177 -268 384
-750 605 -1414 l86 -258 -86 -127 c-173 -257 -295 -559 -322 -799 -4 -32 -12
-62 -18 -67 -6 -5 -48 -18 -93 -30 -337 -88 -668 -287 -910 -546 -578 -621
-871 -1688 -873 -3179 l0 -158 -81 -152 c-224 -416 -428 -718 -608 -898 -83
-82 -111 -102 -206 -151 -60 -31 -127 -73 -147 -94 -144 -143 -91 -359 111
-452 81 -38 202 -38 281 -1 65 31 112 76 142 138 17 35 23 72 29 175 6 111 12
144 38 215 61 166 217 427 414 695 67 90 82 106 88 90 11 -29 10 -592 -1 -729
-23 -268 -60 -410 -139 -540 -67 -108 -83 -155 -84 -240 -3 -322 450 -429 608
-144 27 49 30 62 30 149 l0 95 -61 116 c-70 131 -96 225 -113 403 -19 194 -9
680 17 871 l7 50 56 -80 c150 -215 301 -488 360 -650 31 -85 33 -98 34 -235 2
-169 15 -211 83 -272 64 -57 104 -71 207 -72 81 -1 97 2 155 30 119 57 190
155 190 262 0 105 -56 178 -189 247 -47 25 -109 64 -138 87 -157 129 -360 434
-568 853 l-105 212 0 200 c0 110 5 292 10 404 54 1101 266 1866 655 2364 76
98 237 254 325 316 136 96 358 205 459 225 29 6 31 5 31 -21 0 -47 50 -252 87
-359 245 -705 940 -1282 1810 -1502 l73 -18 0 -1835 0 -1835 -33 31 c-59 57
-225 180 -317 237 -457 283 -937 379 -1355 271 -362 -94 -636 -349 -711 -662
-21 -84 -23 -248 -5 -323 19 -79 81 -206 130 -267 l43 -53 1349 0 1349 0 2
2181 3 2182 105 -4 c58 -2 174 -3 258 -1 l152 3 0 -2180 0 -2181 1349 0 1349
0 42 47 c55 63 117 191 136 283 21 100 14 259 -16 355 -156 503 -752 767
-1405 624 -300 -66 -644 -241 -910 -464 l-90 -75 -3 1822 c-1 1002 0 1823 2
1825 2 2 63 19 137 37 673 171 1244 549 1581 1046 145 214 249 456 302 701 l6
26 172 6 c95 4 216 13 268 22 1093 180 1878 1228 2346 3135 l48 194 105 121
c146 166 434 453 564 560 212 176 343 252 486 280 109 22 160 45 215 95 59 55
80 109 74 197 -7 120 -75 215 -196 271 -49 23 -70 27 -147 27 -103 0 -145 -17
-206 -82 -48 -50 -63 -81 -89 -184 -35 -137 -110 -253 -289 -441 -106 -112
-468 -434 -478 -425 -4 5 77 369 108 487 70 262 151 480 225 602 21 34 75 101
120 148 112 119 137 171 135 286 -1 134 -101 251 -246 289 -64 16 -88 17 -152
5z"/>
</g>
</svg>
