<?xml version="1.0" encoding="UTF-8"?><svg id="Layer_1" xmlns="http://www.w3.org/2000/svg" viewBox="0 0 1521.65 279.82"><path d="M490.4,73.12c1.77-1.55,4.61-2.32,8.51-2.32h4.19v41.84c0,2.72-.16,4.4-.47,5.04-.43,.91-1.01,1.55-1.75,1.92-1.03,.56-2.38,.84-4.06,.84h-1.93v1.48h30.38v-1.48h-1.93c-1.65,0-2.96-.26-3.92-.78-.96-.52-1.6-1.13-1.93-1.82-.33-.69-.49-2.43-.49-5.2v-41.84h4.32c2.71,0,4.61,.24,5.69,.72,1.94,.88,3.47,2.06,4.58,3.54,1.11,1.48,2.12,3.91,3.04,7.3h1.54v-14.68h-52.11v14.68h1.63c.66-4,2.23-7.08,4.71-9.24Z"/><path d="M562.62,120.47c-1.68-.21-2.8-.77-3.34-1.68-.43-.67-.64-2.33-.64-5v-20.04c1.25-1.84,2.42-3.13,3.51-3.86,1.08-.73,2.2-1.1,3.34-1.1,.77,0,1.46,.22,2.08,.66,.61,.44,1.05,1.05,1.31,1.84,.26,.79,.39,2.73,.39,5.82v16.68c0,2.69-.26,4.39-.77,5.08-.71,.88-1.78,1.41-3.21,1.6v1.44h20.28v-1.44c-1.74-.19-2.9-.63-3.47-1.34-.57-.71-.86-2.49-.86-5.34v-14.6c0-4.27-.29-7.3-.88-9.1-.58-1.8-1.77-3.37-3.55-4.7-1.78-1.33-3.93-2-6.44-2-1.97,0-3.87,.45-5.69,1.34-1.83,.89-3.84,2.42-6.03,4.58v-21.64h-16.3v1.48c1.77,.21,2.93,.67,3.49,1.36,.56,.69,.83,2.45,.83,5.28v38c0,2.85-.24,4.57-.73,5.16-.71,.85-1.91,1.36-3.59,1.52v1.44h20.28v-1.44Z"/><path d="M608.62,123.03c3.45,0,6.49-.86,9.11-2.58,2.62-1.72,5.02-4.65,7.19-8.78l-1.45-.88c-1.6,2.32-3.1,3.93-4.49,4.82-1.4,.89-2.95,1.34-4.66,1.34-2.77,0-5.13-1.11-7.1-3.32-2.57-2.88-3.98-6.8-4.24-11.76h21.95c-.23-6.11-1.83-10.71-4.81-13.82-2.98-3.11-6.5-4.66-10.55-4.66-4.85,0-9.08,1.85-12.69,5.54-3.61,3.69-5.41,8.66-5.41,14.9,0,5.09,1.23,9.36,3.68,12.8,3.05,4.27,7.54,6.4,13.48,6.4Zm-5.86-25.24c0-4.13,.84-7.39,2.52-9.76,.94-1.36,2.15-2.04,3.64-2.04,1,0,1.8,.24,2.4,.72,1.05,.83,1.83,2.04,2.33,3.64,.5,1.6,.75,4.55,.75,8.84h-11.64v-1.4Z"/><path d="M538.47,210.84h2.54c2.37,0,4.39,.45,6.06,1.35,1.67,.9,2.77,1.9,3.3,3.01,.53,1.11,.8,3.55,.8,7.33v19.97c-2.61,.95-5.17,1.66-7.66,2.16-2.49,.5-4.92,.74-7.29,.74-6.82,0-12.71-1.63-17.67-4.89-4.96-3.26-8.55-8.36-10.78-15.3-2.23-6.94-3.34-15.01-3.34-24.22,0-7.6,1.02-15.01,3.05-22.24,2.03-7.22,5.49-12.85,10.38-16.89,4.89-4.04,11.01-6.05,18.36-6.05s14.78,2.41,21.26,7.22c6.48,4.82,11.35,11.85,14.59,21.1h2.69v-33.85h-2.69c-.97,2.69-2.03,4.52-3.19,5.49-1.16,.97-2.42,1.45-3.77,1.45-.87,0-3.69-.89-8.45-2.66-4.77-1.77-8.21-2.84-10.34-3.22-3.92-.75-8.32-1.13-13.21-1.13-15.77,0-28.86,4.98-39.26,14.94-10.4,9.96-15.6,22.17-15.6,36.61,0,8.07,1.69,15.37,5.08,21.88,2.66,5.05,6.35,9.6,11.07,13.63,4.72,4.04,10.16,7.29,16.33,9.77s13.92,3.72,23.26,3.72c7.3,0,14.36-.7,21.15-2.09,6.8-1.39,13.34-3.46,19.63-6.2v-19.97c0-3.49,.22-5.69,.65-6.59,.77-1.7,1.87-2.91,3.3-3.65,1.43-.73,3.96-1.21,7.58-1.45v-2.62h-47.82v2.62Z"/><path d="M653.63,240.37c-.63,0-1.19-.19-1.67-.57-.48-.38-.85-.96-1.09-1.73-.24-.78-.36-2.68-.36-5.7v-25.71c0-7.13-.34-11.68-1.02-13.67-1.11-3.12-3.54-6.01-7.29-8.67-3.75-2.67-8.84-4-15.28-4-5.32,0-10.45,.83-15.38,2.48-4.93,1.65-8.78,4.03-11.54,7.12-2.76,3.09-4.14,6.34-4.14,9.74,0,2.41,1.03,4.51,3.08,6.3,2.06,1.79,4.61,2.69,7.66,2.69,2.85,0,5.16-.81,6.93-2.44,1.77-1.63,2.65-3.6,2.65-5.91,0-1.89-.92-3.85-2.76-5.88-1.35-1.46-2.03-2.69-2.03-3.68,0-1.13,.63-2.12,1.89-2.97,2.03-1.37,4.62-2.05,7.77-2.05,1.93,0,3.68,.48,5.23,1.45,1.55,.97,2.6,2.1,3.16,3.4,.56,1.3,.83,4.45,.83,9.45v6.66c-14.95,6.7-24.65,12.07-29.1,16.11-4.45,4.04-6.68,8.58-6.68,13.63,0,3.73,1.28,6.83,3.85,9.31,2.56,2.48,5.78,3.72,9.65,3.72,6.58,0,14.01-3.56,22.28-10.69,.48,3.59,1.81,6.27,3.99,8.04,2.18,1.77,5.2,2.66,9.07,2.66,3.29,0,6.23-.79,8.82-2.37,2.59-1.58,5.09-4.12,7.51-7.61l-2.18-1.7c-1.31,1.75-2.59,2.62-3.85,2.62Zm-23.37-6.8c-3.19,2.64-6,3.97-8.42,3.97-2.18,0-3.87-.64-5.08-1.91-1.6-1.65-2.4-3.56-2.4-5.74,0-2.6,.94-5.17,2.83-7.72,2.85-3.82,7.21-7.41,13.06-10.76v22.17Z"/><path d="M693.69,234.78v-82.29h-28.45v2.62c3.19,.19,5.35,.93,6.46,2.23,1.11,1.3,1.67,4.26,1.67,8.89v68.55c0,4.67-.48,7.55-1.45,8.64-1.45,1.61-3.68,2.46-6.68,2.55v2.55h36.65v-2.55c-3.24-.19-5.42-.93-6.53-2.23-1.11-1.3-1.67-4.28-1.67-8.96Z"/><path d="M734.99,234.78v-82.29h-28.45v2.62c3.19,.19,5.35,.93,6.46,2.23,1.11,1.3,1.67,4.26,1.67,8.89v68.55c0,4.67-.48,7.55-1.45,8.64-1.45,1.61-3.68,2.46-6.68,2.55v2.55h36.65v-2.55c-3.24-.19-5.42-.93-6.53-2.23-1.11-1.3-1.67-4.28-1.67-8.96Z"/><path d="M798.2,184.78c-5.08-2.97-10.57-4.46-16.47-4.46-9.82,0-17.55,3.53-23.19,10.59-5.64,7.06-8.45,15.33-8.45,24.82s2.76,17.3,8.27,24.29c5.52,6.99,13.38,10.48,23.59,10.48s18.55-3.82,24.46-11.47c4.89-6.33,7.33-14.19,7.33-23.58,0-6.52-1.32-12.51-3.96-17.99-2.64-5.48-6.5-9.7-11.58-12.68Zm-7.26,52.33c-.63,2.88-1.89,5.12-3.77,6.73-1.45,1.18-3.27,1.77-5.44,1.77s-4.21-.87-5.95-2.62c-1.74-1.75-2.88-4.3-3.41-7.65-.68-4.39-1.02-9.11-1.02-14.16,0-9.54,.28-16.98,.83-22.34,.56-5.36,1.72-8.95,3.48-10.76,1.77-1.82,3.88-2.73,6.35-2.73,2.03,0,3.68,.5,4.93,1.49,1.79,1.37,3.14,3.55,4.06,6.55,.92,3,1.38,8.51,1.38,16.54,0,13.64-.48,22.71-1.45,27.19Z"/><path d="M882.7,184.92c-4.09-3.07-8.62-4.6-13.61-4.6-4.16,0-8.01,1.11-11.54,3.33-2.47,1.51-4.89,3.97-7.26,7.36v-8.71h-28.45v2.62c3.19,.19,5.35,.93,6.46,2.23,1.11,1.3,1.67,4.28,1.67,8.96v69.89c0,4.53-.48,7.34-1.45,8.43-1.45,1.56-3.68,2.38-6.68,2.48v2.62h38.68v-2.62c-3.39,0-5.66-.28-6.82-.85-1.16-.57-2.02-1.46-2.58-2.69-.56-1.23-.83-3.54-.83-6.94v-24.64c2.66,2.97,5.2,5.08,7.62,6.3,3.24,1.6,6.72,2.41,10.45,2.41,5.13,0,9.79-1.45,13.97-4.36,4.18-2.9,7.38-7.13,9.58-12.68,2.2-5.55,3.3-11.67,3.3-18.38,0-6.23-1.07-12.05-3.19-17.46-2.13-5.41-5.24-9.64-9.33-12.71Zm-12.59,54.32c-1.69,2.69-3.85,4.04-6.46,4.04-4.74,0-9.19-2.88-13.35-8.64v-35.34c3.14-6.89,7.16-10.34,12.05-10.34,3.1,0,5.56,1.39,7.4,4.18,2.76,4.2,4.14,12.02,4.14,23.44s-1.26,18.7-3.77,22.66Z"/><path d="M923.02,172.11c3.1,0,5.74-1.06,7.95-3.19,2.2-2.12,3.3-4.7,3.3-7.72s-1.09-5.61-3.27-7.75c-2.18-2.15-4.84-3.22-7.98-3.22s-5.73,1.07-7.91,3.22c-2.18,2.15-3.27,4.73-3.27,7.75s1.09,5.59,3.27,7.72c2.18,2.12,4.81,3.19,7.91,3.19Z"/><path d="M933.18,234.78v-52.47h-28.45v2.62c3.19,.19,5.35,.93,6.46,2.23,1.11,1.3,1.67,4.28,1.67,8.96v38.67c0,4.67-.48,7.55-1.45,8.64-1.45,1.61-3.68,2.46-6.68,2.55v2.55h36.65v-2.55c-3.24-.19-5.42-.93-6.53-2.23-1.11-1.3-1.67-4.28-1.67-8.96Z"/><path d="M1015.36,243.6c-.94-1.25-1.42-4.43-1.42-9.52v-25.78c0-7.65-.39-12.82-1.16-15.51-.97-3.54-2.9-6.5-5.81-8.89-2.9-2.38-6.56-3.58-10.96-3.58-3.68,0-7.11,.84-10.3,2.51-3.19,1.68-6.53,4.36-10.01,8.04v-8.57h-27.65v2.62c3,.38,4.97,1.18,5.91,2.41,.94,1.23,1.42,4.34,1.42,9.35v37.39c0,5.1-.41,8.17-1.23,9.21-1.21,1.51-3.24,2.41-6.1,2.69v2.55h34.33v-2.55c-2.56-.33-4.32-1.16-5.26-2.48-.94-1.32-1.42-4.46-1.42-9.42v-35.48c3.58-5.81,7.45-8.71,11.61-8.71,1.26,0,2.41,.39,3.45,1.17,1.04,.78,1.78,1.88,2.21,3.29,.44,1.42,.65,4.84,.65,10.27v29.46c0,4.67-.39,7.6-1.16,8.78-1.11,1.75-2.95,2.79-5.52,3.12v2.55h34.33v-2.55c-3-.33-4.97-1.12-5.92-2.37Z"/><path d="M1089.06,244.2c-3.82-2.17-10.81-3.26-20.97-3.26l-12.55,.14c-3,0-5.17-.54-6.5-1.63-1.33-1.09-2-2.48-2-4.18,0-1.94,.74-3.6,2.21-4.99,1.47-1.39,3.3-2.09,5.48-2.09,5.52,.24,8.42,.35,8.71,.35,3.58,0,7.68-.98,12.3-2.94,4.62-1.96,8.27-4.67,10.96-8.14,2.68-3.47,4.03-7.56,4.03-12.29,0-2.78-.58-5.45-1.74-8-.92-1.89-2.56-3.99-4.93-6.3h12.99v-7.79h-22.86c-4.79-1.84-9.43-2.76-13.93-2.76-8.52,0-15.48,2.37-20.9,7.12-5.42,4.74-8.13,10.35-8.13,16.82,0,4.96,1.45,9.32,4.35,13.1,2.9,3.78,7.59,6.82,14.08,9.14-5.56,2.27-9.63,4.93-12.19,8-2.57,3.07-3.85,6.23-3.85,9.49,0,5.38,3.14,9.58,9.43,12.6-4.55,1.18-7.66,2.63-9.33,4.36-1.67,1.72-2.5,3.67-2.5,5.84s1.09,4.43,3.27,6.48c2.18,2.05,5.78,3.66,10.81,4.82,5.03,1.16,10.59,1.73,16.69,1.73,8.13,0,15.31-1.16,21.55-3.47,4.11-1.56,7.43-3.98,9.94-7.26,2.51-3.28,3.77-6.93,3.77-10.94,0-6.28-2.73-10.93-8.2-13.95Zm-34.54-55.34c1.93-2.76,4.31-4.14,7.11-4.14s4.98,1.13,6.53,3.4c2.18,3.07,3.27,8.83,3.27,17.28,0,7.51-.97,12.56-2.9,15.15-1.94,2.6-4.35,3.9-7.26,3.9-2.61,0-4.87-1.31-6.79-3.93-1.91-2.62-2.87-7.45-2.87-14.48,0-8.69,.97-14.41,2.9-17.17Zm25.15,83.46c-3.85,1.75-9.13,2.62-15.86,2.62-7.89,0-13.26-.98-16.11-2.94-2.86-1.96-4.28-4.14-4.28-6.55s1.38-4.49,4.14-5.95c1.6-.8,4.86-1.2,9.8-1.2,11.42,0,18.44,.26,21.08,.78,2.64,.52,4.61,1.49,5.91,2.9,.73,.8,1.09,1.79,1.09,2.97,0,3.16-1.92,5.62-5.77,7.37Z"/><path d="M1203.36,210.84h2.54c2.37,0,4.39,.45,6.06,1.35,1.67,.9,2.77,1.9,3.3,3.01,.53,1.11,.8,3.55,.8,7.33v19.97c-2.61,.95-5.17,1.66-7.66,2.16-2.49,.5-4.92,.74-7.29,.74-6.82,0-12.71-1.63-17.67-4.89-4.96-3.26-8.55-8.36-10.78-15.3-2.23-6.94-3.34-15.01-3.34-24.22,0-7.6,1.02-15.01,3.05-22.24,2.03-7.22,5.49-12.85,10.38-16.89,4.89-4.04,11.01-6.05,18.36-6.05s14.78,2.41,21.26,7.22c6.48,4.82,11.34,11.85,14.59,21.1h2.69v-33.85h-2.69c-.97,2.69-2.03,4.52-3.19,5.49-1.16,.97-2.42,1.45-3.77,1.45-.87,0-3.69-.89-8.45-2.66-4.77-1.77-8.21-2.84-10.34-3.22-3.92-.75-8.32-1.13-13.21-1.13-15.77,0-28.86,4.98-39.26,14.94-10.4,9.96-15.6,22.17-15.6,36.61,0,8.07,1.69,15.37,5.08,21.88,2.66,5.05,6.35,9.6,11.07,13.63,4.72,4.04,10.16,7.29,16.33,9.77,6.17,2.48,13.92,3.72,23.26,3.72,7.3,0,14.36-.7,21.15-2.09,6.8-1.39,13.34-3.46,19.63-6.2v-19.97c0-3.49,.22-5.69,.65-6.59,.77-1.7,1.87-2.91,3.3-3.65,1.43-.73,3.96-1.21,7.58-1.45v-2.62h-47.82v2.62Z"/><path d="M1306.19,184.78c-5.08-2.97-10.57-4.46-16.47-4.46-9.82,0-17.55,3.53-23.19,10.59-5.64,7.06-8.45,15.33-8.45,24.82s2.76,17.3,8.27,24.29c5.51,6.99,13.38,10.48,23.58,10.48s18.55-3.82,24.46-11.47c4.89-6.33,7.33-14.19,7.33-23.58,0-6.52-1.32-12.51-3.96-17.99-2.64-5.48-6.5-9.7-11.58-12.68Zm-7.26,52.33c-.63,2.88-1.89,5.12-3.77,6.73-1.45,1.18-3.27,1.77-5.44,1.77s-4.21-.87-5.95-2.62c-1.74-1.75-2.88-4.3-3.41-7.65-.68-4.39-1.02-9.11-1.02-14.16,0-9.54,.28-16.98,.83-22.34,.56-5.36,1.72-8.95,3.48-10.76,1.77-1.82,3.88-2.73,6.35-2.73,2.03,0,3.68,.5,4.94,1.49,1.79,1.37,3.14,3.55,4.06,6.55,.92,3,1.38,8.51,1.38,16.54,0,13.64-.48,22.71-1.45,27.19Z"/><path d="M1380.5,184.78c-5.08-2.97-10.57-4.46-16.47-4.46-9.82,0-17.55,3.53-23.19,10.59-5.64,7.06-8.45,15.33-8.45,24.82s2.76,17.3,8.27,24.29c5.51,6.99,13.38,10.48,23.58,10.48s18.55-3.82,24.46-11.47c4.89-6.33,7.33-14.19,7.33-23.58,0-6.52-1.32-12.51-3.96-17.99-2.64-5.48-6.5-9.7-11.58-12.68Zm-7.26,52.33c-.63,2.88-1.89,5.12-3.77,6.73-1.45,1.18-3.27,1.77-5.44,1.77s-4.21-.87-5.95-2.62c-1.74-1.75-2.88-4.3-3.41-7.65-.68-4.39-1.02-9.11-1.02-14.16,0-9.54,.28-16.98,.83-22.34,.56-5.36,1.72-8.95,3.48-10.76,1.77-1.82,3.88-2.73,6.35-2.73,2.03,0,3.68,.5,4.94,1.49,1.79,1.37,3.14,3.55,4.06,6.55,.92,3,1.38,8.51,1.38,16.54,0,13.64-.48,22.71-1.45,27.19Z"/><path d="M1436.45,205.71c-7.11-4.7-11.44-8.01-12.99-9.95-.97-1.18-1.45-2.41-1.45-3.68,0-1.7,.7-3.2,2.1-4.5,1.4-1.3,3.1-1.95,5.08-1.95,3.14,0,6.3,1.23,9.47,3.68,3.17,2.46,6.23,7.03,9.18,13.74h2.47l-1.09-22.59h-2.47c-1.16,1.65-2.01,2.66-2.54,3.01-.53,.35-1.23,.53-2.1,.53-.82,0-1.89-.35-3.19-1.06-3.44-1.75-6.99-2.62-10.67-2.62-6.82,0-12.04,2.07-15.64,6.2-3.61,4.13-5.41,8.75-5.41,13.84,0,4.67,1.6,8.95,4.79,12.82,2.18,2.64,6.97,6.47,14.37,11.47,5.03,3.35,8.27,5.85,9.72,7.51,1.45,1.65,2.18,3.61,2.18,5.88,0,1.98-.74,3.67-2.21,5.06-1.48,1.39-3.37,2.09-5.7,2.09-3.39,0-6.98-1.56-10.78-4.67-3.8-3.12-6.79-7.79-8.96-14.02h-2.47l1.16,23.79h2.4c1.06-2.36,2.39-3.54,3.99-3.54,.53,0,1.52,.26,2.98,.78,5.42,1.98,9.75,2.97,12.99,2.97,4.16,0,7.96-.94,11.39-2.83s6.1-4.6,7.98-8.14c1.89-3.54,2.83-7.15,2.83-10.83,0-4.06-1.12-7.73-3.38-11.01-2.25-3.28-6.93-7.27-14.04-11.97Z"/><path d="M1511.56,237.36c-2.37,1.58-5.01,2.37-7.91,2.37-4.69,0-8.71-1.96-12.05-5.88-4.35-5.1-6.75-12.04-7.18-20.82h37.23c-.39-10.81-3.11-18.97-8.16-24.47-5.06-5.5-11.02-8.25-17.89-8.25-8.23,0-15.4,3.27-21.52,9.81-6.12,6.54-9.18,15.33-9.18,26.38,0,9.02,2.08,16.57,6.24,22.66,5.18,7.55,12.8,11.33,22.86,11.33,5.85,0,11.01-1.52,15.46-4.57,4.45-3.04,8.51-8.23,12.19-15.54l-2.47-1.56c-2.71,4.11-5.25,6.95-7.62,8.53Zm-27.5-31.55c0-7.32,1.43-13.08,4.28-17.28,1.6-2.41,3.65-3.61,6.17-3.61,1.69,0,3.05,.42,4.06,1.27,1.79,1.46,3.11,3.61,3.96,6.44s1.27,8.05,1.27,15.65h-19.74v-2.48Z"/><path d="M465.01,57.16c-3.7-3.82-8.41-6.64-12.83-9.54-5.32-3.49-10.7-6.9-16.25-10-10.26-5.72-21.3-10.6-32.95-12.56-6.16-1.04-12.29-.91-18.48-1.44-6.53-.56-11.76-3.49-16.84-7.44-9.48-7.36-17.72-14.86-30.25-16-28.55-2.6-47.85,23.7-74.05,29.34-.01,0-.02,0-.03,0-39.05-19.77-86.26-18.84-125.55-.11-12.24,5.83-23.25,13.43-33.02,22.47-3.92-.85-8.18-.06-11.71,1.99-6.18,3.6-9.38,10.39-12.52,16.48-7.65,14.79-15.29,29.58-22.94,44.37-4.74,6.19-9.9,12.04-15.82,17.25-5.26,4.63-10.49,8.68-11.95,15.92-1.38,6.91,.13,13.75-2.17,20.58-4.45,13.21-16,23.15-26.17,32.03-1.95,1.7-1.93,5.38,0,7.07,11.19,9.83,27.93-1.94,37.76-8.61,11.25-7.63,21.99-16.57,35.11-20.64,1.21,2.69-2.4,7.07-4.25,8.33-4.89,3.32-11.07,4.24-16.1,7.36-6.97,4.33-10.97,12.31-10.33,20.52,.64,8.16,6.32,15.04,14.84,15.39,8.54,.36,15.25-5.56,22.15-9.68,2.69-1.61,5.99-3.59,9.25-2.78,3.86,.96,4.95,4.89,5.69,8.34,1.84,8.65,1.29,18.03,6.61,25.58,10.83,15.38,33.68,10.4,47.66,2.77,4.59-2.51,9.63-5.87,11.12-11.21,1.5-5.35-.72-10.53-4.9-13.96-1.33-1.09-2.73-1.94-4.18-2.61,11.02,.12,21.91-1.85,31.92-7.33,9.67-5.3,17.54-13.18,26.64-19.31,7.58-5.1,15.96-8.54,24.91-10.34,17.08-3.43,35.6-.53,50.9,7.75,7.93,4.29,14.89,9.97,20.63,16.93,5.42,6.59,12.17,15.46,21.64,15.52,5.6,.04,8.45-3.38,12.34-6.69,3.93-3.34,10.62,.47,15.59-1.17,5.62-1.85,9.84-7.37,13.88-11.4,5.47-5.45,10.94-10.9,16.4-16.34,4.57-4.55-2.5-11.62-7.07-7.07-.67,.67-1.35,1.34-2.02,2.02-.79-1.08-2.08-1.8-3.86-1.74-23.58,.82-48.84-.2-69.2-13.47-3-3.31-6.35-6.2-10.16-8.25-4.39-4.42-8.07-9.54-10.65-15.2-2-4.39-3.54-9.52-3.53-14.36,0-7.54,5.09-9.51,10.77-12.97,7.77-4.74,14.38-11.11,19.54-18.49,1.61,.75,3.54,.58,5.06-1.26,11.46-13.83,17.52-30.81,17.52-48.37,1.91,1.73,3.67,3.7,4.91,4.79,4.9,4.29,9.8,8.57,14.69,12.86,2.26,1.98,4.49,4.06,6.8,6.06,.14,.14,.27,.28,.42,.41,.53,.49,1.1,.94,1.69,1.36,1.76,1.43,3.57,2.78,5.49,3.95,7.93,4.86,19.21,5.56,25.34-2.62,2.54-3.4,3.16-7.58,2.16-11.68-1.06-4.36-4.85-8.22-5.48-12.57-.71-4.93,5.66-.5,7.08,1.35,3.21,4.18,4.49,9.5,8.09,13.49,3.3,3.65,7.72,5.62,12.59,6.03,2.46,.21,4.94-.03,7.42-.31,1.2,.27,2.47,.45,3.81,.55,3.86,.29,7.91,.53,11.97,.64,8.13,2.77,15.87,7.22,24.48,2.2,9.76-5.69,7.07-17.31,.41-24.19Z"/></svg>