<?xml version="1.0" encoding="UTF-8"?><svg id="Layer_1" xmlns="http://www.w3.org/2000/svg" viewBox="0 0 965.8 394"><defs><style>.cls-1{font-family:Arial-BoldMT, Arial;font-size:100.7px;}.cls-1,.cls-2{fill:#fff;stroke:#fff;stroke-miterlimit:10;}</style></defs><g><path class="cls-2" d="M229.6,124.6c2.5-8.7,3.9-18,3.9-27.6C233.5,43.7,191.4,.5,139.5,.5S45.5,43.7,45.5,97s1.6,20.2,4.5,29.6C21.3,135.3,.5,162,.5,193.5s31.3,70,70,70,5.4-.2,8-.5l-29-25.9c-3.1-2.8-3.3-7.5-.6-10.6,2.8-3.1,7.5-3.3,10.6-.6l36.6,32.8c11.7-4.6,21.8-12.2,29.4-21.9V124.5c0-8.3,6.7-15,15-15s15,6.7,15,15v115.9c1.7,1.6,3.4,3.1,5.2,4.5l69.2-62.5c3.1-2.8,7.8-2.5,10.6,.5,2.8,3.1,2.5,7.8-.5,10.6l-65.9,59.5c8.9,4.1,18.9,6.5,29.4,6.5,38.7,0,70-31.3,70-70s-18.2-54.6-43.9-64.9Z"/><path class="cls-2" d="M155.5,249.6v-9.2c-7.9-7.5-14.1-16.7-17.9-27.2-2.5,8.6-6.7,16.6-12.1,23.5v48.2l-29.4-26.3c-5.6,2.2-11.5,3.7-17.6,4.4l47,42.1v62.4c0,8.3,6.7,15,15,15s15-6.7,15-15v-98.4c.9-.3,1.8-.8,2.5-1.5l16.1-14.5c-4.8-2.2-9.3-4.9-13.4-8.1l-5.2,4.7Z"/></g><g><path class="cls-2" d="M327.1,273V70.6h-76V29.4h203.6v41.2h-75.8v202.4h-51.7Z"/><path class="cls-2" d="M514.9,273h-49.1V96.5h45.6v25.1c7.8-11.9,14.8-19.7,21.1-23.4,6.2-3.8,13.3-5.7,21.2-5.7s22,2.9,32.3,8.8l-15.2,40.7c-8.3-5.1-16-7.6-23.1-7.6s-12.7,1.8-17.5,5.4c-4.8,3.6-8.5,10.1-11.3,19.5-2.7,9.4-4.1,29.1-4.1,59.2v54.5Z"/><path class="cls-2" d="M714.7,216.8l48.9,7.8c-6.3,17.1-16.2,30.1-29.8,39-13.6,8.9-30.6,13.4-50.9,13.4-32.3,0-56.2-10-71.7-30.1-12.2-16.1-18.3-36.3-18.3-60.8s8-52.2,24.1-68.7c16.1-16.6,36.4-24.8,61-24.8s49.4,8.7,65.4,26c16,17.3,23.6,43.9,22.9,79.7h-123c.3,13.9,4.3,24.6,11.9,32.3,7.6,7.7,17,11.6,28.3,11.6s14.2-2,19.4-6c5.2-4,9.2-10.4,11.9-19.3Zm2.8-47.2c-.3-13.5-4-23.8-11-30.8-7-7-15.5-10.6-25.5-10.6s-19.6,3.7-26.6,11.1c-7,7.4-10.4,17.5-10.3,30.2h73.4Z"/><path class="cls-2" d="M913.7,216.8l48.9,7.8c-6.3,17.1-16.2,30.1-29.8,39-13.6,8.9-30.6,13.4-50.9,13.4-32.3,0-56.2-10-71.7-30.1-12.2-16.1-18.3-36.3-18.3-60.8s8-52.2,24.1-68.7c16.1-16.6,36.4-24.8,61-24.8s49.4,8.7,65.4,26c16,17.3,23.6,43.9,22.9,79.7h-123c.3,13.9,4.3,24.6,11.9,32.3,7.6,7.7,17,11.6,28.3,11.6s14.2-2,19.4-6c5.2-4,9.2-10.4,11.9-19.3Zm2.8-47.2c-.3-13.5-4-23.8-11-30.8-7-7-15.5-10.6-25.5-10.6s-19.6,3.7-26.6,11.1c-7,7.4-10.4,17.5-10.3,30.2h73.4Z"/></g><text class="cls-1" transform="translate(320.8 355.6)"><tspan x="0" y="0">Photography</tspan></text></svg>